# xmcd
#
# Track frame offsets:
#	150
#	14207
#	29190
#	43483
#	56300
#	74007
#	89157
#	109483
#	122913
#	138948
#	152392
#	163983
#
# Disc length: 2363 seconds
#
# Revision: 0
# Processed by: cddbd v1.5.1PL2 Copyright (c) Steve Scherf et al.
# Submitted via: EasyCDDAExtractor 8.2.3.1
#
DISCID=be09390c
DTITLE=Jacó e Jacózinho
DYEAR=1964
DGENRE=Sertanejo
TTITLE0=Menina moça
TTITLE1=Filho adotivo
TTITLE2=Burro empacador
TTITLE3=Galo carijó
TTITLE4=Silvério Dias
TTITLE5=Breganha de mulher
TTITLE6=A capa do viajante
TTITLE7=Degrau da fama
TTITLE8=Quem sabe sabe
TTITLE9=Tem gente pra tudo
TTITLE10=Cachaceiro
TTITLE11=Pequeno e valente
EXTD=
EXTT0=
EXTT1=
EXTT2=
EXTT3=
EXTT4=
EXTT5=
EXTT6=
EXTT7=
EXTT8=
EXTT9=
EXTT10=
EXTT11=
PLAYORDER=
